<?xml version="1.0" encoding="UTF-8"?>
<svg version="1.1" xmlns="http://www.w3.org/2000/svg" width="824" height="303">
<path d="M0 0 C0.80179687 0.00451172 1.60359375 0.00902344 2.4296875 0.01367188 C4.41149006 0.02546832 6.39325433 0.04340395 8.375 0.0625 C11.81543102 7.34435021 14.50850379 14.82664946 17.125 22.4375 C17.53621094 23.61183594 17.94742187 24.78617188 18.37109375 25.99609375 C18.75910156 27.11886719 19.14710938 28.24164063 19.546875 29.3984375 C19.8984668 30.41470215 20.25005859 31.4309668 20.61230469 32.47802734 C21.375 35.0625 21.375 35.0625 21.375 38.0625 C23.34918737 37.84299747 23.34918737 37.84299747 25.375 37.0625 C26.13322074 35.06355442 26.86232728 33.04962955 27.45703125 30.99609375 C28.57933046 27.40951203 30.0028117 23.96931371 31.4375 20.5 C33.51699661 15.41320217 35.27472629 10.4538412 36.375 5.0625 C37.035 5.0625 37.695 5.0625 38.375 5.0625 C37.88 3.0825 37.88 3.0825 37.375 1.0625 C40.99367559 -0.1437252 44.30006251 -0.04566918 48.0625 0 C48.76439453 0.00451172 49.46628906 0.00902344 50.18945312 0.01367188 C51.91800538 0.02543073 53.64651365 0.04336546 55.375 0.0625 C58.90446573 8.15011997 62.06444129 16.37378924 65.1875 24.625 C65.59669678 25.69621094 66.00589355 26.76742187 66.42749023 27.87109375 C66.80848877 28.88429687 67.1894873 29.8975 67.58203125 30.94140625 C68.09987183 32.31147827 68.09987183 32.31147827 68.62817383 33.70922852 C69.375 36.0625 69.375 36.0625 69.375 39.0625 C70.365 39.0625 71.355 39.0625 72.375 39.0625 C72.53355469 38.43085938 72.69210937 37.79921875 72.85546875 37.1484375 C74.61041504 30.4195274 76.78684207 23.92253747 79.16796875 17.390625 C80.64965926 13.30518708 82.02219188 9.19212478 83.375 5.0625 C84.035 5.0625 84.695 5.0625 85.375 5.0625 C85.519375 4.423125 85.66375 3.78375 85.8125 3.125 C86.375 1.0625 86.375 1.0625 87.375 0.0625 C90.23767567 -0.01075168 93.075719 -0.02988205 95.9375 0 C96.74380859 0.00451172 97.55011719 0.00902344 98.38085938 0.01367188 C100.37893756 0.02549482 102.37697783 0.04343086 104.375 0.0625 C103.62762292 4.86296045 101.94941745 9.22403325 100.25 13.75 C99.9394165 14.5857959 99.62883301 15.4215918 99.30883789 16.28271484 C96.91914126 22.6853437 94.43998396 29.05133786 91.93774414 35.41064453 C89.62936652 41.31380216 87.52111095 47.27532436 85.4465332 53.26391602 C83.67353132 58.33628518 81.67043999 63.20676156 79.375 68.0625 C76.78914795 68.22486745 74.21348046 68.34345486 71.625 68.4375 C70.89539063 68.48777344 70.16578125 68.53804688 69.4140625 68.58984375 C67.265625 68.6484375 67.265625 68.6484375 63.375 68.0625 C60.17784857 64.50488542 58.73564527 60.78750901 57.375 56.25 C55.95003806 51.72923839 54.31219541 47.47389679 52.32421875 43.17578125 C50.83712075 39.86499929 49.61501087 36.4725299 48.375 33.0625 C47.055 33.0625 45.735 33.0625 44.375 33.0625 C44.20061401 34.08972168 44.20061401 34.08972168 44.02270508 35.13769531 C42.83169418 40.51587496 40.74550024 45.62370623 38.81958008 50.77490234 C38.31316669 52.13785821 37.81385175 53.50347178 37.3215332 54.87158203 C36.60856511 56.85270803 35.87523986 58.82515451 35.13671875 60.796875 C34.70319092 61.97475586 34.26966309 63.15263672 33.82299805 64.36621094 C32.375 67.0625 32.375 67.0625 30.40014648 67.94360352 C27.50996446 68.11328629 24.64641525 68.23365454 21.75 68.25 C20.02910156 68.27126953 20.02910156 68.27126953 18.2734375 68.29296875 C15.375 68.0625 15.375 68.0625 13.375 66.0625 C12.6640625 64.03125 12.6640625 64.03125 12 61.5625 C10.83641127 57.24460448 9.24789346 53.1957759 7.56982422 49.05957031 C5.41124874 43.64504791 3.3915941 38.17852312 1.37353516 32.71044922 C0.87015205 31.35003421 0.36391694 29.99067145 -0.14501953 28.63232422 C-0.8894286 26.64517479 -1.62532474 24.65505806 -2.359375 22.6640625 C-2.79475586 21.49182129 -3.23013672 20.31958008 -3.67871094 19.11181641 C-4.625 16.0625 -4.625 16.0625 -4.625 12.0625 C-5.285 12.0625 -5.945 12.0625 -6.625 12.0625 C-7.285 9.0925 -7.945 6.1225 -8.625 3.0625 C-9.285 3.0625 -9.945 3.0625 -10.625 3.0625 C-10.625 2.4025 -10.625 1.7425 -10.625 1.0625 C-7.31505287 -0.59247356 -3.63377 -0.03834335 0 0 Z M46.375 28.0625 C46.375 28.7225 46.375 29.3825 46.375 30.0625 C47.035 30.0625 47.695 30.0625 48.375 30.0625 C48.375 29.4025 48.375 28.7425 48.375 28.0625 C47.715 28.0625 47.055 28.0625 46.375 28.0625 Z M45.375 30.0625 C46.375 32.0625 46.375 32.0625 46.375 32.0625 Z " fill="#4337EC" transform="translate(276.625,127.9375)"/>
<path d="M0 0 C3.4040327 1.51628493 3.4040327 1.51628493 7 2 C7 0.68 7 -0.64 7 -2 C12.61 -2 18.22 -2 24 -2 C24.92373439 1.69493758 25.12107386 4.46306977 25.11352539 8.23730469 C25.11341209 10.12881256 25.11341209 10.12881256 25.11329651 12.05853271 C25.10819028 13.42964721 25.1029743 14.80076131 25.09765625 16.171875 C25.09579028 17.57863311 25.09436722 18.98539188 25.09336853 20.39215088 C25.08955744 24.08780727 25.0797392 27.78342413 25.06866455 31.47906494 C25.05842014 35.25296494 25.05386442 39.02687135 25.04882812 42.80078125 C25.03811564 50.20053882 25.02105616 57.60026386 25 65 C21.39314031 65.97964694 18.12233078 66.16635254 14.375 66.1875 C12.65410156 66.20876953 12.65410156 66.20876953 10.8984375 66.23046875 C8 66 8 66 6 64 C5.875 61.375 5.875 61.375 6 59 C5.443125 59.40992188 4.88625 59.81984375 4.3125 60.2421875 C-3.04384237 65.43636168 -9.77551332 68.06827695 -19 67 C-28.60949841 65.11919357 -38.07373245 60.76757937 -43.68359375 52.47265625 C-48.92202576 42.63310888 -51.67939183 33.50531456 -48.375 22.625 C-45.15559798 12.78605557 -39.93988825 4.62818262 -30.6015625 -0.25390625 C-20.5752072 -4.47320826 -9.84648655 -4.65470273 0 0 Z M-24.828125 17.5859375 C-28.67117489 21.85806578 -30.77667844 25.58812713 -31.3125 31.375 C-30.75925764 37.7926114 -28.35249264 42.46854841 -23.65625 46.7734375 C-18.68561723 50.45451932 -13.22016597 50.3033904 -7.36328125 49.5390625 C-1.65830416 48.23776194 1.71582474 44.62217259 5 40 C7.23976422 35.52047156 6.60025667 29.84735571 6 25 C3.74103836 20.08789549 0.0735626 16.00582707 -5 14 C-12.05003637 12.24783832 -19.14884654 12.65904208 -24.828125 17.5859375 Z " fill="#4337EC" transform="translate(512,130)"/>
<path d="M0 0 C2.12321429 0.63561526 2.12321429 0.63561526 4 1 C4.66 -0.32 5.32 -1.64 6 -3 C8.64590014 -3.02684679 11.29153096 -3.04676357 13.9375 -3.0625 C14.69224609 -3.07087891 15.44699219 -3.07925781 16.22460938 -3.08789062 C18.14994313 -3.09652441 20.07535581 -3.05224333 22 -3 C23 -2 23 -2 23.12025452 0.62586975 C23.11803391 1.79613205 23.11581329 2.96639435 23.11352539 4.17211914 C23.11367142 4.81600082 23.11381744 5.45988251 23.1139679 6.12327576 C23.11326885 8.26060303 23.10547691 10.39784413 23.09765625 12.53515625 C23.09579204 14.01346285 23.09436815 15.49177007 23.09336853 16.97007751 C23.08954359 20.86798802 23.07971352 24.76586149 23.06866455 28.66375732 C23.05844992 32.63846333 23.0538708 36.61317529 23.04882812 40.58789062 C23.03809122 48.391944 23.02101509 56.19596682 23 64 C19.93466836 65.53266582 16.73245728 65.10276471 13.375 65.0625 C12.66859375 65.05798828 11.9621875 65.05347656 11.234375 65.04882812 C9.48954725 65.03703875 7.744763 65.01910324 6 65 C5.690625 64.195625 5.38125 63.39125 5.0625 62.5625 C4.23664655 60.10919595 4.23664655 60.10919595 3 59 C2.5153125 59.33773437 2.030625 59.67546875 1.53125 60.0234375 C-5.53765649 64.72697913 -12.3915612 67.00904777 -21 66 C-31.75709268 63.80046667 -39.53695196 58.88052402 -46 50 C-51.15380227 41.58693959 -53.50127358 32.70800275 -51.32421875 22.98046875 C-50.5987651 20.30213513 -49.83127341 17.64720997 -49 15 C-48.34 15 -47.68 15 -47 15 C-47 14.01 -47 13.02 -47 12 C-46.34 12 -45.68 12 -45 12 C-44.814375 11.29875 -44.62875 10.5975 -44.4375 9.875 C-40.95120995 2.90241991 -33.44564633 -1.18074176 -26.24609375 -3.5859375 C-17.11560048 -5.26912409 -7.91139755 -5.0206946 0 0 Z M-28.4375 18.25 C-31.91876346 22.86267408 -33.31043113 27.35549367 -32.8125 33.125 C-31.40708423 39.82775215 -28.51906766 42.99597052 -23 47 C-17.73075731 49.63462135 -12.62781746 49.26488405 -7 48 C-2.03611555 45.42613399 1.48539093 42.02921814 4 37 C4.68911981 29.55524661 4.63396217 24.0116266 0 18 C-3.94071865 14.16298448 -7.87320784 12.42253948 -13.3125 11.6875 C-19.24403259 12.37721309 -24.30607379 13.74391014 -28.4375 18.25 Z " fill="#4337EB" transform="translate(686,131)"/>
<path d="M0 0 C1.56125851 0.00399299 3.12251789 0.01875614 4.68359375 0.04296875 C5.47701172 0.04361328 6.27042969 0.04425781 7.08789062 0.04492188 C12.98083853 0.09021353 12.98083853 0.09021353 14.12109375 1.23046875 C14.20949045 3.60615395 14.2363968 5.95255549 14.21875 8.328125 C14.21733505 9.03698349 14.2159201 9.74584198 14.21446228 10.47618103 C14.20884818 12.74848587 14.19629338 15.0206935 14.18359375 17.29296875 C14.17858056 18.83007671 14.17401734 20.3671862 14.16992188 21.90429688 C14.15887417 25.67972517 14.14160016 29.45508046 14.12109375 33.23046875 C14.83177002 32.87533203 15.54244629 32.52019531 16.2746582 32.15429688 C25.30944166 27.81163193 33.90051259 26.15791288 43.68359375 29.48046875 C50.9199194 33.16441636 54.86900237 37.80273133 58.12109375 45.23046875 C62.32166014 61.55494477 60.03477827 79.57030633 59.12109375 96.23046875 C55.50478948 97.21708983 52.25425057 97.36395217 48.49609375 97.35546875 C47.34882813 97.35804688 46.2015625 97.360625 45.01953125 97.36328125 C42.12109375 97.23046875 42.12109375 97.23046875 40.12109375 96.23046875 C40.13156738 95.08570068 40.14204102 93.94093262 40.15283203 92.76147461 C40.18918358 88.49181273 40.21204918 84.22216439 40.23095703 79.95239258 C40.24098017 78.10861913 40.25460227 76.26486144 40.27197266 74.42114258 C40.2963837 71.76249285 40.30761392 69.10405432 40.31640625 66.4453125 C40.32672882 65.62836411 40.33705139 64.81141571 40.34768677 63.9697113 C40.3487519 58.46800058 40.16086466 52.8910395 36.68359375 48.35546875 C33.6555382 46.17526876 30.78541826 46.07005014 27.18359375 46.04296875 C26.32894531 46.02878906 25.47429687 46.01460937 24.59375 46 C21.80990988 46.25947325 20.38522074 46.58082299 18.12109375 48.23046875 C14.77033873 53.46150728 14.65263477 57.99396801 14.609375 64.00390625 C14.5914238 64.92765045 14.5734726 65.85139465 14.55497742 66.8031311 C14.50103951 69.73719801 14.46703175 72.67110376 14.43359375 75.60546875 C14.40040609 77.60158484 14.3659151 79.59767972 14.33007812 81.59375 C14.24532249 86.47253968 14.17843258 91.35128294 14.12109375 96.23046875 C10.12835599 97.08629823 6.46245458 97.36472522 2.37109375 97.35546875 C1.22125 97.35804688 0.07140625 97.360625 -1.11328125 97.36328125 C-3.87890625 97.23046875 -3.87890625 97.23046875 -4.87890625 96.23046875 C-4.96805327 94.03566681 -4.9857499 91.83794986 -4.9765625 89.64135742 C-4.97510223 88.95157303 -4.97364197 88.26178864 -4.97213745 87.55110168 C-4.96831902 86.04457581 -4.96218957 84.53805448 -4.95407104 83.03154564 C-4.94129451 80.62741072 -4.93478529 78.22333123 -4.92993164 75.81916809 C-4.91655653 69.82910347 -4.89272436 63.83908925 -4.86853027 57.84906006 C-4.84532207 52.01135839 -4.82812012 46.1736733 -4.81640625 40.3359375 C-4.81422089 39.53020168 -4.81203552 38.72446587 -4.80978394 37.89431381 C-4.78736701 27.76521044 -4.87645446 17.67628655 -5.69897461 7.57255554 C-5.83049111 5.79571073 -5.86596932 4.01212717 -5.87890625 2.23046875 C-3.87890625 0.23046875 -3.87890625 0.23046875 0 0 Z " fill="#4237EB" transform="translate(393.87890625,98.76953125)"/>
<path d="M0 0 C1.12535156 0.00580078 1.12535156 0.00580078 2.2734375 0.01171875 C3.02367187 0.00785156 3.77390625 0.00398438 4.546875 0 C10.14682697 0.01010822 10.14682697 0.01010822 11.2734375 1.13671875 C11.36013182 2.62543735 11.38047244 4.11816375 11.37109375 5.609375 C11.36787109 6.50849609 11.36464844 7.40761719 11.36132812 8.33398438 C11.35294922 9.27951172 11.34457031 10.22503906 11.3359375 11.19921875 C11.33142578 12.14861328 11.32691406 13.09800781 11.32226562 14.07617188 C11.3104386 16.4297494 11.29395775 18.78320352 11.2734375 21.13671875 C12.88025391 21.11931641 12.88025391 21.11931641 14.51953125 21.1015625 C15.91666493 21.09218576 17.31380049 21.08308544 18.7109375 21.07421875 C19.41798828 21.06583984 20.12503906 21.05746094 20.85351562 21.04882812 C22.66037309 21.04018287 24.46731353 21.08451864 26.2734375 21.13671875 C27.2734375 22.13671875 27.2734375 22.13671875 27.37109375 25.515625 C27.36442119 26.91018952 27.35246282 28.30473618 27.3359375 29.69921875 C27.33142578 30.41013672 27.32691406 31.12105469 27.32226562 31.85351562 C27.31044614 33.61461888 27.29251013 35.37567911 27.2734375 37.13671875 C21.88853109 38.05329856 16.73113561 38.24810034 11.2734375 38.13671875 C11.317657 42.19423917 11.38755581 46.25043457 11.48095703 50.30712891 C11.50912849 51.68623526 11.53036222 53.06550193 11.54443359 54.44482422 C11.56591295 56.43094824 11.61466882 58.41671784 11.6640625 60.40234375 C11.68500977 61.59633789 11.70595703 62.79033203 11.72753906 64.02050781 C12.37187863 67.69866087 13.31541747 68.92160531 16.2734375 71.13671875 C18.87602177 71.4057464 18.87602177 71.4057464 21.5234375 70.88671875 C22.86148438 70.69335938 22.86148438 70.69335938 24.2265625 70.49609375 C24.90203125 70.3775 25.5775 70.25890625 26.2734375 70.13671875 C28.73290673 75.39103938 30.17645583 80.44531973 31.2734375 86.13671875 C26.20692141 88.62056344 22.02403896 89.66073239 16.3359375 89.57421875 C15.28043701 89.56177124 15.28043701 89.56177124 14.20361328 89.54907227 C7.51032782 89.33103225 3.31750195 88.03294784 -1.49609375 83.453125 C-6.6395782 77.85190657 -6.87461629 73.3586442 -6.82421875 65.87109375 C-6.8228038 65.07769592 -6.82138885 64.2842981 -6.81993103 63.46685791 C-6.81434665 60.94010603 -6.80179704 58.41344371 -6.7890625 55.88671875 C-6.78404548 54.1705742 -6.77948293 52.45442826 -6.77539062 50.73828125 C-6.76438234 46.53772606 -6.74712846 42.33723758 -6.7265625 38.13671875 C-8.71223958 38.16927083 -10.69791667 38.20182292 -12.68359375 38.234375 C-14.7265625 38.13671875 -14.7265625 38.13671875 -17.7265625 37.13671875 C-18.57290738 32.05864946 -18.90421667 27.28868961 -18.7265625 22.13671875 C-17.7265625 21.13671875 -17.7265625 21.13671875 -15.22265625 21.0390625 C-14.21332031 21.05066406 -13.20398438 21.06226562 -12.1640625 21.07421875 C-11.15214844 21.08324219 -10.14023437 21.09226562 -9.09765625 21.1015625 C-7.92396484 21.11896484 -7.92396484 21.11896484 -6.7265625 21.13671875 C-6.73179932 20.53609619 -6.73703613 19.93547363 -6.74243164 19.31665039 C-6.76314264 16.61085037 -6.77620375 13.90506698 -6.7890625 11.19921875 C-6.79744141 10.25369141 -6.80582031 9.30816406 -6.81445312 8.33398438 C-6.81767578 7.43486328 -6.82089844 6.53574219 -6.82421875 5.609375 C-6.82945557 4.77672119 -6.83469238 3.94406738 -6.84008789 3.08618164 C-6.59482224 -1.12553071 -3.50835736 0.00633278 0 0 Z " fill="#4337EC" transform="translate(563.7265625,106.86328125)"/>
<path d="M0 0 C1.58206057 0.00667536 3.16410534 0.0186375 4.74609375 0.03515625 C5.55240234 0.03966797 6.35871094 0.04417969 7.18945312 0.04882812 C9.18753131 0.06065107 11.18557158 0.07858711 13.18359375 0.09765625 C14.56784786 2.86616448 14.30319337 5.10184809 14.29711914 8.19970703 C14.29704361 9.48088409 14.29696808 10.76206116 14.29689026 12.08206177 C14.29178323 13.48569782 14.28656723 14.88933348 14.28125 16.29296875 C14.27938521 17.7250056 14.27796159 19.15704309 14.27696228 20.58908081 C14.27314194 24.36038979 14.26331577 28.13166032 14.2522583 31.9029541 C14.2420338 35.75040161 14.23746243 39.59785532 14.23242188 43.4453125 C14.22169308 50.99611128 14.20462244 58.54687838 14.18359375 66.09765625 C9.74253368 67.42040669 5.95331531 68.35592071 1.30859375 68.28515625 C0.36242187 68.27871094 -0.58375 68.27226562 -1.55859375 68.265625 C-3.81640625 68.09765625 -3.81640625 68.09765625 -4.81640625 67.09765625 C-4.91580251 65.04752779 -4.94440178 62.99394233 -4.94580078 60.94140625 C-4.94895294 59.62333984 -4.9521051 58.30527344 -4.95535278 56.94726562 C-4.953563 55.4973955 -4.95151205 54.04752567 -4.94921875 52.59765625 C-4.94989182 51.12174463 -4.95086188 49.64583312 -4.95211792 48.16992188 C-4.95359473 45.07290596 -4.95144089 41.97591883 -4.94677734 38.87890625 C-4.94108005 34.90057076 -4.94435915 30.92230273 -4.95034981 26.94396973 C-4.95395588 23.89517708 -4.95281662 20.84640054 -4.95022202 17.79760742 C-4.94955287 16.33032219 -4.95038072 14.86303551 -4.95270157 13.39575195 C-4.95522882 11.34847032 -4.95069685 9.30118359 -4.94580078 7.25390625 C-4.94500519 6.08666016 -4.94420959 4.91941406 -4.94338989 3.71679688 C-4.7420698 -0.43559329 -4.35794399 0.11151341 0 0 Z " fill="#4237EA" transform="translate(725.81640625,127.90234375)"/>
<path d="M0 0 C1.32 0.66 2.64 1.32 4 2 C4 2.66 4 3.32 4 4 C4.59224365 4.2693335 5.1844873 4.53866699 5.79467773 4.81616211 C7.99725642 5.99852722 9.49350061 7.21205972 11.28515625 8.94140625 C12.19744995 9.81043579 12.19744995 9.81043579 13.12817383 10.69702148 C13.76650146 11.31262939 14.4048291 11.9282373 15.0625 12.5625 C20.45321686 17.71485855 25.89110207 22.44688596 31.92578125 26.83984375 C35.24857934 30.30030956 35.95363353 33.78530643 36.05297852 38.53051758 C35.97481054 41.34031929 35.81667936 44.13323093 35.625 46.9375 C35.53992188 48.3925293 35.53992188 48.3925293 35.453125 49.87695312 C35.31271847 52.25216354 35.16142622 54.62614124 35 57 C30.21456839 53.96873734 25.99746001 50.55295571 21.75 46.8125 C21.09467285 46.24023682 20.4393457 45.66797363 19.76416016 45.07836914 C15.18187116 41.06760184 10.64336203 37.01086248 6.1484375 32.90234375 C4.00683695 30.92013844 4.00683695 30.92013844 1.3984375 29.25878906 C-1 27 -1 27 -1.58349609 24.17504883 C-1.56367676 23.11310303 -1.54385742 22.05115723 -1.5234375 20.95703125 C-1.51183594 19.80138672 -1.50023438 18.64574219 -1.48828125 17.45507812 C-1.45089844 16.25302734 -1.41351563 15.05097656 -1.375 13.8125 C-1.36082031 12.59884766 -1.34664063 11.38519531 -1.33203125 10.13476562 C-1.18172844 1.18172844 -1.18172844 1.18172844 0 0 Z " fill="#4337EA" transform="translate(118,85)"/>
<path d="M0 0 C3.64984816 1.55817184 6.1685954 3.81124399 9.0625 6.5 C11.65920335 8.90536731 14.05106306 11.03404204 17 13 C17 13.66 17 14.32 17 15 C17.58426758 15.28617188 18.16853516 15.57234375 18.77050781 15.8671875 C25.44668032 19.25937327 32.21477194 23.34466838 36 30 C37.86486451 38.50162688 36.93717155 47.41550863 36 56 C31.05393438 55.22903792 29.41424234 53.70718029 26 50 C24.85769103 48.88938437 23.70600123 47.78836476 22.546875 46.6953125 C21.93166992 46.11515381 21.31646484 45.53499512 20.68261719 44.93725586 C20.04485352 44.33921143 19.40708984 43.74116699 18.75 43.125 C18.0890332 42.50439697 17.42806641 41.88379395 16.74707031 41.24438477 C12.59827834 37.38519673 8.38430788 33.78049447 3.734375 30.52734375 C1.46562247 28.52941077 0.26521367 26.75253381 -1 24 C-1.07421875 20.88671875 -1.07421875 20.88671875 -0.6875 17.6875 C-0.50767578 16.08455078 -0.50767578 16.08455078 -0.32421875 14.44921875 C-0.21722656 13.64097656 -0.11023438 12.83273438 0 12 C-0.66 12 -1.32 12 -2 12 C-2 11.34 -2 10.68 -2 10 C-1.34 10 -0.68 10 0 10 C-0.08378906 9.36191406 -0.16757813 8.72382813 -0.25390625 8.06640625 C-0.35574219 7.24011719 -0.45757812 6.41382813 -0.5625 5.5625 C-0.66691406 4.73878906 -0.77132812 3.91507813 -0.87890625 3.06640625 C-0.91886719 2.38449219 -0.95882812 1.70257813 -1 1 C-0.67 0.67 -0.34 0.34 0 0 Z " fill="#4337EA" transform="translate(161,155)"/>
<path d="M0 0 C0.66 0.33 1.32 0.66 2 1 C4.21010795 22.84849572 4.21010795 22.84849572 0.80322266 29.24804688 C-2.28093266 32.86537517 -6.10804378 35.34004111 -10.14013672 37.79833984 C-13.03796514 39.67063067 -15.37267771 41.93687758 -17.875 44.3125 C-18.75027344 45.11042969 -19.62554687 45.90835938 -20.52734375 46.73046875 C-22.13197014 48.20327749 -23.72884275 49.68459597 -25.31640625 51.17578125 C-26.36634766 52.14064453 -26.36634766 52.14064453 -27.4375 53.125 C-28.03433594 53.68445313 -28.63117188 54.24390625 -29.24609375 54.8203125 C-31 56 -31 56 -35 56 C-34.67 54.35 -34.34 52.7 -34 51 C-34.66 51 -35.32 51 -36 51 C-35.67 50.01 -35.34 49.02 -35 48 C-35.07226489 44.6541357 -35.17164666 41.31988846 -35.390625 37.98046875 C-35.50111417 34.27217593 -35.30433395 32.38143967 -32.96484375 29.44921875 C-31.49724609 28.23685547 -31.49724609 28.23685547 -30 27 C-28.78053242 25.84482234 -27.56884799 24.68139624 -26.36328125 23.51171875 C-19.77670247 17.2758518 -13.24205557 11.1089059 -6.015625 5.61328125 C-3.84791309 3.87827153 -1.92913243 1.99430582 0 0 Z " fill="#4236E9" transform="translate(195,85)"/>
<path d="M0 0 C0.6980887 6.10827612 1.15464352 12.23094294 1.375 18.375 C1.42398438 19.51710937 1.47296875 20.65921875 1.5234375 21.8359375 C0.82570591 26.05356873 -0.78230756 27.24825756 -4 30 C-4.98607444 30.92773861 -5.96771376 31.86020941 -6.9453125 32.796875 C-8.00339832 33.78319529 -9.06336148 34.76750472 -10.125 35.75 C-10.96998047 36.53225952 -10.96998047 36.53225952 -11.83203125 37.33032227 C-16.2667074 41.40063247 -20.84084597 45.22926686 -25.5625 48.96484375 C-28.12158613 51.02331133 -28.12158613 51.02331133 -30.625 53.75390625 C-33 56 -33 56 -36 56 C-36.11611395 51.75022954 -36.18722349 47.50086663 -36.25 43.25 C-36.28351563 42.0434375 -36.31703125 40.836875 -36.3515625 39.59375 C-36.36445312 38.43359375 -36.37734375 37.2734375 -36.390625 36.078125 C-36.41157227 35.00981445 -36.43251953 33.94150391 -36.45410156 32.84082031 C-35.89156706 29.32165283 -34.7863764 28.14904623 -32 26 C-31.34 26 -30.68 26 -30 26 C-30 25.34 -30 24.68 -30 24 C-28.42713316 22.58561594 -26.78860004 21.24395599 -25.125 19.9375 C-21.23985109 16.8353657 -17.47575061 13.67380305 -13.8125 10.3125 C-2.48684211 0 -2.48684211 0 0 0 Z " fill="#4236EA" transform="translate(153,155)"/>
<path d="M0 0 C28.40420517 -2.00602595 28.40420517 -2.00602595 34.77294922 3.4777832 C36.99279913 5.8744034 38.99473102 8.42322936 41 11 C42.83190965 12.59262932 44.70735257 14.13671594 46.625 15.625 C50.37946959 18.65808678 54.06718566 21.74490212 57.6875 24.9375 C58.51636719 25.66839844 59.34523437 26.39929688 60.19921875 27.15234375 C62 29 62 29 62 31 C32.91166214 33.1879367 32.91166214 33.1879367 25.12744141 26.90332031 C22.56437539 24.39579604 20.2877994 21.76397673 18 19 C17.06285156 18.25234375 16.12570313 17.5046875 15.16015625 16.734375 C14.44730469 16.16203125 13.73445312 15.5896875 13 15 C13 14.34 13 13.68 13 13 C12.43796875 12.75121094 11.8759375 12.50242188 11.296875 12.24609375 C8.62288141 10.79540675 6.53580462 9.0681815 4.25 7.0625 C3.45078125 6.37285156 2.6515625 5.68320313 1.828125 4.97265625 C0 3 0 3 0 0 Z " fill="#4338E9" transform="translate(173,152)"/>
<path d="M0 0 C1.20970459 0.00523682 2.41940918 0.01047363 3.66577148 0.01586914 C4.97094727 0.0190918 6.27612305 0.02231445 7.62084961 0.02563477 C9.00952213 0.03399138 10.39819401 0.04245634 11.78686523 0.05102539 C13.17944179 0.05603873 14.57202005 0.06060193 15.96459961 0.06469727 C19.38456394 0.07653105 22.80444367 0.09301659 26.22436523 0.11352539 C26.22436523 3.11352539 26.22436523 3.11352539 24.54467773 4.93774414 C23.82022461 5.55262695 23.09577148 6.16750977 22.34936523 6.80102539 C21.63006836 7.42364258 20.91077148 8.04625977 20.16967773 8.68774414 C18.22436523 10.11352539 18.22436523 10.11352539 16.22436523 10.11352539 C16.22436523 10.77352539 16.22436523 11.43352539 16.22436523 12.11352539 C14.82592773 13.52368164 14.82592773 13.52368164 12.84936523 15.17602539 C8.65945293 18.7322321 4.58401532 22.39741098 0.52124023 26.09790039 C-0.23672852 26.76305664 -0.99469727 27.42821289 -1.77563477 28.11352539 C-2.34411133 28.64405518 -2.91258789 29.17458496 -3.49829102 29.72119141 C-6.61174336 31.62470971 -8.87883568 31.45427275 -12.51000977 31.40649414 C-13.80551758 31.39682617 -15.10102539 31.3871582 -16.43579102 31.37719727 C-17.79907831 31.35213322 -19.16235956 31.32673841 -20.52563477 31.30102539 C-21.90452661 31.28597057 -23.28343411 31.27228356 -24.66235352 31.26000977 C-28.03384391 31.22464448 -31.40454131 31.17528443 -34.77563477 31.11352539 C-34.77563477 28.11352539 -34.77563477 28.11352539 -33.08813477 26.31665039 C-31.94344727 25.34985352 -31.94344727 25.34985352 -30.77563477 24.36352539 C-29.5284668 23.29618164 -29.5284668 23.29618164 -28.25610352 22.20727539 C-27.02827148 21.17086914 -27.02827148 21.17086914 -25.77563477 20.11352539 C-24.5443272 19.032626 -23.31506122 17.94939522 -22.08813477 16.86352539 C-17.56686893 12.91201257 -13.00030703 9.01306898 -8.43505859 5.11254883 C-2.57931149 0.10549563 -2.57931149 0.10549563 0 0 Z " fill="#4235EB" transform="translate(114.775634765625,151.886474609375)"/>
<path d="M0 0 C1.40419452 0.04020786 2.80850073 0.07669577 4.21289062 0.109375 C7.62398423 0.20315077 11.02927051 0.33428898 14.4375 0.5 C14.4375 1.49 14.4375 2.48 14.4375 3.5 C13.0390625 4.7890625 13.0390625 4.7890625 11.0625 6.125 C5.82001908 9.85772051 1.18258456 14.16423583 -3.5625 18.5 C-4.93261518 19.73460928 -6.30725594 20.96422487 -7.6875 22.1875 C-8.24695313 22.68636719 -8.80640625 23.18523437 -9.3828125 23.69921875 C-10.10210937 24.29347656 -10.82140625 24.88773438 -11.5625 25.5 C-12.32216064 26.25434326 -12.32216064 26.25434326 -13.09716797 27.02392578 C-19.33155306 32.61981985 -25.37000715 32.27463805 -33.4375 32 C-34.67242187 31.9896875 -35.90734375 31.979375 -37.1796875 31.96875 C-46.25292969 31.80957031 -46.25292969 31.80957031 -48.5625 29.5 C-34.17214788 15.89759223 -34.17214788 15.89759223 -26.99047852 10.484375 C-24.54875216 8.59217098 -24.54875216 8.59217098 -22.68310547 6.4074707 C-16.02219354 -0.82234176 -9.17238151 -0.45954032 0 0 Z " fill="#4337E9" transform="translate(220.5625,113.5)"/>
<path d="M0 0 C4.07507572 -0.04946866 8.15003497 -0.08575189 12.2253418 -0.10986328 C13.61144048 -0.1199157 14.99751799 -0.1335597 16.38354492 -0.15087891 C18.3766975 -0.17515952 20.37000533 -0.18542031 22.36328125 -0.1953125 C24.16212769 -0.21102295 24.16212769 -0.21102295 25.99731445 -0.22705078 C29 0 29 0 32 2 C32 2.66 32 3.32 32 4 C32.57234375 4.25394531 33.1446875 4.50789063 33.734375 4.76953125 C36.26593314 6.14442921 38.12614321 7.74317786 40.25 9.6875 C41.03503906 10.3990625 41.82007813 11.110625 42.62890625 11.84375 C43.41136719 12.5553125 44.19382813 13.266875 45 14 C48.72812036 17.30185614 52.47106186 20.58034045 56.3125 23.75 C58.32366047 25.43376225 60.19975916 27.09974578 62 29 C58.69976377 32.30023623 54.61194608 31.35987453 50.12060547 31.38085938 C30.58223524 31.04658444 30.58223524 31.04658444 25.23095703 26.44702148 C23.01019221 24.07711275 21.00908195 21.54973191 19 19 C17.12554478 17.36691299 15.20868531 15.78104782 13.25 14.25 C12.36183594 13.53070313 11.47367188 12.81140625 10.55859375 12.0703125 C9.71425781 11.38710937 8.86992188 10.70390625 8 10 C6.42821147 8.71965245 4.864734 7.42898568 3.3125 6.125 C2.66925781 5.59132813 2.02601562 5.05765625 1.36328125 4.5078125 C0 3 0 3 0 0 Z " fill="#4336EB" transform="translate(80,114)"/>
<path d="M0 0 C3.36169501 2.57491533 5.39235074 5.11424685 7 9 C7.32625914 12.79955959 7.07909173 16.50614337 4.80078125 19.66015625 C1.48202106 22.64791149 -1.57595482 24 -6 24 C-11.08965004 22.42045344 -14.33444447 20.69137773 -17 16 C-17.88425451 10.03128203 -16.35866319 6.75810619 -13 2 C-8.88645633 -0.58713439 -4.72511129 -0.83533217 0 0 Z " fill="#4237EA" transform="translate(620,173)"/>
<path d="M0 0 C3.00332418 1.80199451 4.5903952 3.3111192 6.375 6.3125 C7.23030472 9.99031032 7.04002166 12.35992419 6 16 C2.89093657 19.47919003 1.08107772 20.84826979 -3.5625 21.5 C-7.89907279 20.86922578 -10.64512391 19.80650145 -13.3125 16.25 C-14.32815881 12.9260257 -14.41796486 10.46313738 -14 7 C-10.37310678 0.95967226 -6.93573685 -0.58777431 0 0 Z " fill="#4339EA" transform="translate(734,99)"/>
<path d="M0 0 C5.61 0 11.22 0 17 0 C17.92373439 3.69493758 18.12107386 6.46306977 18.11352539 10.23730469 C18.11344986 11.49830994 18.11337433 12.75931519 18.11329651 14.05853271 C18.10819028 15.42964721 18.1029743 16.80076131 18.09765625 18.171875 C18.09579028 19.57863311 18.09436722 20.98539188 18.09336853 22.39215088 C18.08955744 26.08780727 18.0797392 29.78342413 18.06866455 33.47906494 C18.05842014 37.25296494 18.05386442 41.02687135 18.04882812 44.80078125 C18.03811564 52.20053882 18.02105616 59.60026386 18 67 C14.33569602 68.00663864 11.0586797 68.1005868 7.25 68.0625 C6.07953125 68.05347656 4.9090625 68.04445313 3.703125 68.03515625 C2.36507812 68.01775391 2.36507812 68.01775391 1 68 C0.67 67.34 0.34 66.68 0 66 C5.28 66 10.56 66 16 66 C16 44.55 16 23.1 16 1 C11.38 1 6.76 1 2 1 C1.67 3.64 1.34 6.28 1 9 C0.01 8.67 -0.98 8.34 -2 8 C-2 6.68 -2 5.36 -2 4 C-1.34 4 -0.68 4 0 4 C0 2.68 0 1.36 0 0 Z " fill="#3E3FE1" transform="translate(519,128)"/>
<path d="M0 0 C0.66 0.33 1.32 0.66 2 1 C1.43410156 1.48210937 0.86820313 1.96421875 0.28515625 2.4609375 C-0.44832031 3.09257812 -1.18179688 3.72421875 -1.9375 4.375 C-2.66839844 5.00148437 -3.39929688 5.62796875 -4.15234375 6.2734375 C-6.08380906 7.87747714 -6.08380906 7.87747714 -7 10 C1.91 10 10.82 10 20 10 C20 10.33 20 10.66 20 11 C10.43 11 0.86 11 -9 11 C-9 8 -9 8 -7.03125 5.95703125 C-6.1959375 5.24933594 -5.360625 4.54164063 -4.5 3.8125 C-3.6646875 3.09707031 -2.829375 2.38164062 -1.96875 1.64453125 C-1.3190625 1.10183594 -0.669375 0.55914062 0 0 Z " fill="#3840DD" transform="translate(89,172)"/>
<path d="M0 0 C9.57 0 19.14 0 29 0 C29 0.33 29 0.66 29 1 C20.42 1.33 11.84 1.66 3 2 C4.32 3.32 5.64 4.64 7 6 C6.67 6.66 6.34 7.32 6 8 C1.3125 4.38671875 1.3125 4.38671875 0 3 C0 2.01 0 1.02 0 0 Z " fill="#403DDE" transform="translate(80,114)"/>
<path d="M0 0 C0 0.99 0 1.98 0 3 C-0.33 3.33 -0.66 3.66 -1 4 C-1.15740605 5.70563778 -1.25093392 7.41727244 -1.31640625 9.12890625 C-1.35830078 10.16337891 -1.40019531 11.19785156 -1.44335938 12.26367188 C-1.48267578 13.35228516 -1.52199219 14.44089844 -1.5625 15.5625 C-1.60568359 16.65498047 -1.64886719 17.74746094 -1.69335938 18.87304688 C-1.79982068 21.58189564 -1.90183516 24.29083992 -2 27 C-1.34 27.33 -0.68 27.66 0 28 C-1.32 28 -2.64 28 -4 28 C-3.67 26.35 -3.34 24.7 -3 23 C-3.66 23 -4.32 23 -5 23 C-4.505 21.515 -4.505 21.515 -4 20 C-4.03970745 16.62486654 -4.12374897 13.26296437 -4.30273438 9.89257812 C-4.39468394 6.21800125 -4.33038703 4.41121958 -1.98828125 1.49609375 C-1.00408203 0.75552734 -1.00408203 0.75552734 0 0 Z " fill="#4643E5" transform="translate(164,113)"/>
<path d="M0 0 C9.57 0 19.14 0 29 0 C29 0.99 29 1.98 29 3 C28.01 3 27.02 3 26 3 C26.33 2.34 26.66 1.68 27 1 C18.09 1 9.18 1 0 1 C0 0.67 0 0.34 0 0 Z " fill="#3C40D9" transform="translate(112,152)"/>
<path d="M0 0 C0.99 0.33 1.98 0.66 3 1 C2.01 1.495 2.01 1.495 1 2 C1 9.92 1 17.84 1 26 C0.34 25.34 -0.32 24.68 -1 24 C-0.9765625 21.1796875 -0.9765625 21.1796875 -0.625 17.875 C-0.51414063 16.77929688 -0.40328125 15.68359375 -0.2890625 14.5546875 C-0.14597656 13.29011719 -0.14597656 13.29011719 0 12 C-0.66 12 -1.32 12 -2 12 C-2 11.34 -2 10.68 -2 10 C-1.34 10 -0.68 10 0 10 C-0.08378906 9.36191406 -0.16757813 8.72382813 -0.25390625 8.06640625 C-0.35574219 7.24011719 -0.45757812 6.41382813 -0.5625 5.5625 C-0.66691406 4.73878906 -0.77132812 3.91507813 -0.87890625 3.06640625 C-0.91886719 2.38449219 -0.95882812 1.70257813 -1 1 C-0.67 0.67 -0.34 0.34 0 0 Z " fill="#4945E7" transform="translate(161,155)"/>
<path d="M0 0 C0.70189453 0.00451172 1.40378906 0.00902344 2.12695312 0.01367188 C3.85550538 0.02543073 5.58401365 0.04336546 7.3125 0.0625 C7.3125 1.0525 7.3125 2.0425 7.3125 3.0625 C6.9825 2.7325 6.6525 2.4025 6.3125 2.0625 C4.378081 1.93666034 2.43847237 1.88671991 0.5 1.875 C-1.08748047 1.85373047 -1.08748047 1.85373047 -2.70703125 1.83203125 C-5.6079626 2.05634966 -7.23568353 2.56053979 -9.6875 4.0625 C-10.0175 3.0725 -10.3475 2.0825 -10.6875 1.0625 C-7.06882441 -0.1437252 -3.76243749 -0.04566918 0 0 Z " fill="#403FDE" transform="translate(324.6875,127.9375)"/>
<path d="M0 0 C0.66 0.33 1.32 0.66 2 1 C2 2.32 2 3.64 2 5 C0.35 5 -1.3 5 -3 5 C-1.125 1.125 -1.125 1.125 0 0 Z " fill="#3B2DE7" transform="translate(85,177)"/>
<path d="" fill="#363AD0" transform="translate(0,0)"/>
<path d="" fill="#3E49D4" transform="translate(0,0)"/>
</svg>
